<?xml version="1.0" encoding="UTF-8"?>
<svg xmlns="http://www.w3.org/2000/svg" width="800px" height="600px" viewBox="0 0 800 600" version="1.1">
  <rect width="100%" height="100%" fill="#f8fafc"/>
  <g transform="translate(400, 300)" fill="#2563eb" fill-opacity="0.2">
    <circle cx="0" cy="0" r="200"/>
  </g>
  <g transform="translate(400, 300)">
    <rect x="-120" y="-150" width="240" height="300" rx="10" fill="white" stroke="#cbd5e1" stroke-width="4"/>
    <rect x="-100" y="-130" width="200" height="30" rx="4" fill="#e2e8f0"/>
    <rect x="-100" y="-90" width="200" height="20" rx="4" fill="#e2e8f0"/>
    <rect x="-100" y="-60" width="150" height="20" rx="4" fill="#e2e8f0"/>
    
    <g transform="translate(0, 0)">
      <rect x="-100" y="-20" width="200" height="50" rx="4" fill="#f1f5f9"/>
      <rect x="-90" y="-10" width="20" height="20" rx="4" fill="#2563eb"/>
      <rect x="-60" y="-5" width="150" height="10" rx="2" fill="#e2e8f0"/>
    </g>
    
    <g transform="translate(0, 60)">
      <rect x="-100" y="-20" width="200" height="50" rx="4" fill="#f1f5f9"/>
      <rect x="-90" y="-10" width="20" height="20" rx="4" fill="#2563eb"/>
      <rect x="-60" y="-5" width="150" height="10" rx="2" fill="#e2e8f0"/>
    </g>
    
    <g transform="translate(0, 120)">
      <rect x="-100" y="-20" width="200" height="50" rx="4" fill="#f1f5f9"/>
      <rect x="-90" y="-10" width="20" height="20" rx="4" fill="#2563eb"/>
      <rect x="-60" y="-5" width="150" height="10" rx="2" fill="#e2e8f0"/>
    </g>
  </g>
  <text x="400" y="480" font-family="Arial" font-size="24" text-anchor="middle" fill="#334155">Summary Report</text>
</svg>