<?xml version="1.0" encoding="UTF-8"?>
<svg xmlns="http://www.w3.org/2000/svg" width="800px" height="600px" viewBox="0 0 800 600" version="1.1">
  <rect width="100%" height="100%" fill="#f8fafc"/>
  <g transform="translate(400, 300)" fill="#2563eb" fill-opacity="0.2">
    <circle cx="0" cy="0" r="200"/>
  </g>
  <g transform="translate(400, 260)">
    <rect x="-100" y="-80" width="200" height="240" rx="10" fill="#e2e8f0"/>
    <rect x="-80" y="-60" width="160" height="20" rx="4" fill="#94a3b8"/>
    <rect x="-80" y="-20" width="160" height="20" rx="4" fill="#94a3b8"/>
    <rect x="-80" y="20" width="160" height="20" rx="4" fill="#94a3b8"/>
    <rect x="-80" y="60" width="160" height="20" rx="4" fill="#94a3b8"/>
    <rect x="-80" y="100" width="100" height="20" rx="4" fill="#94a3b8"/>
  </g>
  <g transform="translate(400, 180)">
    <path d="M0,-50 L-30,-10 L-10,-10 L-10,30 L10,30 L10,-10 L30,-10 Z" fill="#2563eb"/>
    <circle cx="0" cy="-70" r="15" fill="#2563eb"/>
  </g>
  <text x="400" y="380" font-family="Arial" font-size="24" text-anchor="middle" fill="#334155">Upload Your Document</text>
</svg>